<svg xmlns="http://www.w3.org/2000/svg" viewBox="0 0 500 500"><g id="freepik--Birds--inject-59"><path d="M355,163.89a16.6,16.6,0,0,1,8.48,9.13s-.68-10.28,4.08-14.37c0,0-4.31,3.41-5.22,8.41A13.28,13.28,0,0,0,355,163.89Z" style="fill:#263238"></path><path d="M333.83,138.12s7.9,6.14,10.06,11.8c0,0,1.21-6.07,6.93-7.89a8.34,8.34,0,0,0-6.93,3.52A19.94,19.94,0,0,0,333.83,138.12Z" style="fill:#263238"></path><path d="M325.39,164.83s6.47-1,9.57,2.94c0,0-1.92-5.88,0-9.86,0,0-2.56,1.64-1.67,7.55C333.29,165.46,330.83,162.92,325.39,164.83Z" style="fill:#263238"></path></g><g id="freepik--buildings-2--inject-59"><rect x="119.4" y="190.07" width="84.88" height="165.65" style="fill:#e6e6e6"></rect><rect x="119.4" y="190.07" width="69.45" height="165.65" style="fill:#f0f0f0"></rect><rect x="117.57" y="190.07" width="87.71" height="2.7" style="fill:#e0e0e0"></rect><rect x="117.57" y="184.66" width="87.71" height="2.7" style="fill:#e0e0e0"></rect><rect x="119.4" y="187.36" width="84.04" height="2.7" style="fill:#f0f0f0"></rect><rect x="125.99" y="199.82" width="13.04" height="13.04" style="fill:#e6e6e6"></rect><rect x="127.14" y="199.82" width="11.89" height="13.04" style="fill:#f5f5f5"></rect><rect x="145.75" y="199.82" width="13.04" height="13.04" style="fill:#e6e6e6"></rect><rect x="146.9" y="199.82" width="11.89" height="13.04" style="fill:#f5f5f5"></rect><rect x="165.5" y="199.82" width="13.04" height="13.04" style="fill:#e6e6e6"></rect><rect x="166.65" y="199.82" width="11.89" height="13.04" style="fill:#f5f5f5"></rect><rect x="125.99" y="219.03" width="13.04" height="13.04" style="fill:#e6e6e6"></rect><rect x="127.14" y="219.03" width="11.89" height="13.04" style="fill:#f5f5f5"></rect><rect x="145.75" y="219.03" width="13.04" height="13.04" style="fill:#e6e6e6"></rect><rect x="146.9" y="219.03" width="11.89" height="13.04" style="fill:#f5f5f5"></rect><rect x="165.5" y="219.03" width="13.04" height="13.04" style="fill:#e6e6e6"></rect><rect x="166.65" y="219.03" width="11.89" height="13.04" style="fill:#f5f5f5"></rect><rect x="125.99" y="254.2" width="13.04" height="13.04" style="fill:#e6e6e6"></rect><rect x="127.14" y="254.2" width="11.89" height="13.04" style="fill:#f5f5f5"></rect><rect x="145.75" y="254.2" width="13.04" height="13.04" style="fill:#e6e6e6"></rect><rect x="146.9" y="254.2" width="11.89" height="13.04" style="fill:#f5f5f5"></rect><rect x="165.5" y="254.2" width="13.04" height="13.04" style="fill:#e6e6e6"></rect><rect x="166.65" y="254.2" width="11.89" height="13.04" style="fill:#f5f5f5"></rect><rect x="125.99" y="273.41" width="13.04" height="13.04" style="fill:#e6e6e6"></rect><rect x="127.14" y="273.41" width="11.89" height="13.04" style="fill:#f5f5f5"></rect><rect x="145.75" y="273.41" width="13.04" height="13.04" style="fill:#e6e6e6"></rect><rect x="146.9" y="273.41" width="11.89" height="13.04" style="fill:#f5f5f5"></rect><rect x="165.5" y="273.41" width="13.04" height="13.04" style="fill:#e6e6e6"></rect><rect x="166.65" y="273.41" width="11.89" height="13.04" style="fill:#f5f5f5"></rect><rect x="125.99" y="312.5" width="13.04" height="13.04" style="fill:#e6e6e6"></rect><rect x="127.14" y="312.5" width="11.89" height="13.04" style="fill:#f5f5f5"></rect><rect x="145.75" y="312.5" width="13.04" height="13.04" style="fill:#e6e6e6"></rect><rect x="146.9" y="312.5" width="11.89" height="13.04" style="fill:#f5f5f5"></rect><rect x="165.5" y="312.5" width="13.04" height="13.04" style="fill:#e6e6e6"></rect><rect x="166.65" y="312.5" width="11.89" height="13.04" style="fill:#f5f5f5"></rect><rect x="125.99" y="331.71" width="13.04" height="13.04" style="fill:#e6e6e6"></rect><rect x="127.14" y="331.71" width="11.89" height="13.04" style="fill:#f5f5f5"></rect><rect x="145.75" y="331.71" width="13.04" height="13.04" style="fill:#e6e6e6"></rect><rect x="146.9" y="331.71" width="11.89" height="13.04" style="fill:#f5f5f5"></rect><rect x="165.5" y="331.71" width="13.04" height="13.04" style="fill:#e6e6e6"></rect><rect x="166.65" y="331.71" width="11.89" height="13.04" style="fill:#f5f5f5"></rect><rect x="119.4" y="241.24" width="84.88" height="1.21" style="fill:#e0e0e0"></rect><rect x="119.4" y="301.37" width="84.88" height="1.21" style="fill:#e0e0e0"></rect><rect x="46.36" y="239.67" width="58.71" height="142.86" style="fill:#e0e0e0"></rect><rect x="46.36" y="239.67" width="41.99" height="142.86" style="fill:#f0f0f0"></rect><rect x="50.68" y="251.41" width="15.63" height="7.59" style="fill:#e6e6e6"></rect><rect x="51.72" y="251.41" width="14.59" height="7.59" style="fill:#f5f5f5"></rect><rect x="68.76" y="251.41" width="15.63" height="7.59" style="fill:#e6e6e6"></rect><rect x="69.8" y="251.41" width="14.58" height="7.59" style="fill:#f5f5f5"></rect><rect x="50.68" y="265.69" width="15.63" height="7.59" style="fill:#e6e6e6"></rect><rect x="51.72" y="265.69" width="14.59" height="7.59" style="fill:#f5f5f5"></rect><rect x="68.76" y="265.69" width="15.63" height="7.59" style="fill:#e6e6e6"></rect><rect x="69.8" y="265.69" width="14.58" height="7.59" style="fill:#f5f5f5"></rect><rect x="50.68" y="283.94" width="15.63" height="7.59" style="fill:#e6e6e6"></rect><rect x="51.72" y="283.94" width="14.59" height="7.59" style="fill:#f5f5f5"></rect><rect x="68.76" y="283.94" width="15.63" height="7.59" style="fill:#e6e6e6"></rect><rect x="69.8" y="283.94" width="14.58" height="7.59" style="fill:#f5f5f5"></rect><rect x="50.68" y="294.42" width="15.63" height="7.59" style="fill:#e6e6e6"></rect><rect x="51.72" y="294.42" width="14.59" height="7.59" style="fill:#f5f5f5"></rect><rect x="68.76" y="294.42" width="15.63" height="7.59" style="fill:#e6e6e6"></rect><rect x="69.8" y="294.42" width="14.58" height="7.59" style="fill:#f5f5f5"></rect><rect x="50.68" y="311.65" width="15.63" height="7.59" style="fill:#e6e6e6"></rect><rect x="51.72" y="311.65" width="14.59" height="7.59" style="fill:#f5f5f5"></rect><rect x="68.76" y="311.65" width="15.63" height="7.59" style="fill:#e6e6e6"></rect><rect x="69.8" y="311.65" width="14.58" height="7.59" style="fill:#f5f5f5"></rect><rect x="50.68" y="322.13" width="15.63" height="7.59" style="fill:#e6e6e6"></rect><rect x="51.72" y="322.13" width="14.59" height="7.59" style="fill:#f5f5f5"></rect><rect x="68.76" y="322.13" width="15.63" height="7.59" style="fill:#e6e6e6"></rect><rect x="69.8" y="322.13" width="14.58" height="7.59" style="fill:#f5f5f5"></rect><rect x="50.68" y="340.88" width="15.63" height="7.59" style="fill:#e6e6e6"></rect><rect x="51.72" y="340.88" width="14.59" height="7.59" style="fill:#f5f5f5"></rect><rect x="68.76" y="340.88" width="15.63" height="7.59" style="fill:#e6e6e6"></rect><rect x="69.8" y="340.88" width="14.58" height="7.59" style="fill:#f5f5f5"></rect><rect x="50.68" y="354.72" width="15.63" height="7.59" style="fill:#e6e6e6"></rect><rect x="51.72" y="354.72" width="14.59" height="7.59" style="fill:#f5f5f5"></rect><rect x="68.76" y="354.72" width="15.63" height="7.59" style="fill:#e6e6e6"></rect><rect x="69.8" y="354.72" width="14.58" height="7.59" style="fill:#f5f5f5"></rect><rect x="46.36" y="277.95" width="58.71" height="1.31" style="opacity:0.05"></rect><rect x="46.36" y="306.17" width="58.71" height="1.31" style="opacity:0.05"></rect><rect x="46.36" y="334.64" width="58.71" height="1.3" style="opacity:0.05"></rect><rect x="43.59" y="235.44" width="61.47" height="4.56" style="fill:#e0e0e0"></rect><rect x="91.02" y="235.44" width="14.05" height="4.56" style="opacity:0.05"></rect><rect x="239.36" y="165.26" width="68.94" height="179.17" style="fill:#e6e6e6"></rect><rect x="213.84" y="165.26" width="68.94" height="179.17" style="fill:#f0f0f0"></rect><rect x="219.86" y="177.42" width="56.91" height="9.13" style="fill:#e6e6e6"></rect><rect x="222.06" y="177.42" width="54.7" height="9.13" style="fill:#f5f5f5"></rect><rect x="219.86" y="192.79" width="56.91" height="9.13" style="fill:#e6e6e6"></rect><rect x="222.06" y="192.79" width="54.7" height="9.13" style="fill:#f5f5f5"></rect><rect x="219.86" y="208.75" width="56.91" height="9.13" style="fill:#e6e6e6"></rect><rect x="222.06" y="208.75" width="54.7" height="9.13" style="fill:#f5f5f5"></rect><rect x="219.86" y="224.72" width="56.91" height="9.13" style="fill:#e6e6e6"></rect><rect x="222.06" y="224.72" width="54.7" height="9.13" style="fill:#f5f5f5"></rect><rect x="219.86" y="240.68" width="56.91" height="9.13" style="fill:#e6e6e6"></rect><rect x="222.06" y="240.68" width="54.7" height="9.13" style="fill:#f5f5f5"></rect><rect x="219.86" y="256.65" width="56.91" height="9.13" style="fill:#e6e6e6"></rect><rect x="222.06" y="256.65" width="54.7" height="9.13" style="fill:#f5f5f5"></rect><rect x="219.86" y="274.24" width="56.91" height="9.13" style="fill:#e6e6e6"></rect><rect x="222.06" y="274.24" width="54.7" height="9.13" style="fill:#f5f5f5"></rect><rect x="219.86" y="291.84" width="56.91" height="9.13" style="fill:#e6e6e6"></rect><rect x="222.06" y="291.84" width="54.7" height="9.13" style="fill:#f5f5f5"></rect><rect x="219.86" y="309.44" width="56.91" height="9.13" style="fill:#e6e6e6"></rect><rect x="222.06" y="309.44" width="54.7" height="9.13" style="fill:#f5f5f5"></rect><rect x="219.86" y="327.03" width="56.91" height="9.13" style="fill:#e6e6e6"></rect><rect x="222.06" y="327.03" width="54.7" height="9.13" style="fill:#f5f5f5"></rect><rect x="211.89" y="163.46" width="98.2" height="4.37" style="fill:#e0e0e0"></rect><rect x="211.89" y="155.57" width="98.2" height="4.37" style="fill:#e0e0e0"></rect><rect x="213.84" y="159.08" width="92.99" height="4.37" style="fill:#f0f0f0"></rect><rect x="289.09" y="177.42" width="19.21" height="9.13" style="fill:#e0e0e0"></rect><rect x="289.09" y="192.44" width="19.21" height="9.13" style="fill:#e0e0e0"></rect><rect x="289.09" y="207.47" width="19.21" height="9.13" style="fill:#e0e0e0"></rect><rect x="289.09" y="224.71" width="19.21" height="9.13" style="fill:#e0e0e0"></rect><rect x="289.09" y="240.68" width="19.21" height="9.13" style="fill:#e0e0e0"></rect><rect x="289.09" y="256.65" width="19.21" height="9.13" style="fill:#e0e0e0"></rect><rect x="289.09" y="274.24" width="19.21" height="9.13" style="fill:#e0e0e0"></rect><rect x="289.09" y="291.84" width="19.21" height="9.13" style="fill:#e0e0e0"></rect><rect x="289.09" y="309.43" width="19.21" height="9.13" style="fill:#e0e0e0"></rect><rect x="289.09" y="327.03" width="19.21" height="9.13" style="fill:#e0e0e0"></rect><rect x="458.81" y="302.69" width="5.53" height="8.65" style="fill:#e0e0e0"></rect><rect x="458.81" y="316.85" width="5.53" height="8.65" style="fill:#e0e0e0"></rect><rect x="458.81" y="330.6" width="5.53" height="8.65" style="fill:#e0e0e0"></rect><rect x="458.81" y="345.15" width="5.53" height="8.65" style="fill:#e0e0e0"></rect><rect x="458.81" y="359.3" width="5.53" height="8.65" style="fill:#e0e0e0"></rect><rect x="406.17" y="294" width="58.17" height="88.47" style="fill:#e6e6e6"></rect><rect x="406.18" y="294" width="48.34" height="88.47" style="fill:#f0f0f0"></rect><rect x="410.53" y="302.69" width="39.31" height="8.65" style="fill:#ebebeb"></rect><rect x="410.53" y="316.85" width="39.31" height="8.65" style="fill:#ebebeb"></rect><rect x="410.53" y="331" width="39.31" height="8.65" style="fill:#ebebeb"></rect><rect x="410.53" y="345.15" width="39.31" height="8.65" style="fill:#ebebeb"></rect><rect x="410.53" y="359.3" width="39.31" height="8.65" style="fill:#ebebeb"></rect><rect x="411.97" y="302.69" width="37.86" height="8.65" style="fill:#f5f5f5"></rect><rect x="411.97" y="316.85" width="37.86" height="8.65" style="fill:#f5f5f5"></rect><rect x="411.97" y="331" width="37.86" height="8.65" style="fill:#f5f5f5"></rect><rect x="411.97" y="345.15" width="37.86" height="8.65" style="fill:#f5f5f5"></rect><rect x="411.97" y="359.3" width="37.86" height="8.65" style="fill:#f5f5f5"></rect></g><g id="freepik--buildings-1--inject-59"><rect x="119.27" y="219.52" width="99.03" height="193.26" style="fill:#0066CC"></rect><rect x="119.27" y="219.52" width="81.03" height="193.26" style="fill:#fff;opacity:0.4"></rect><rect x="117.14" y="219.52" width="102.33" height="3.15" style="fill:#0066CC"></rect><rect x="117.14" y="213.21" width="102.33" height="3.16" style="fill:#0066CC"></rect><rect x="119.27" y="216.37" width="98.05" height="3.15" style="fill:#f0f0f0"></rect><rect x="126.96" y="230.9" width="15.22" height="15.22" style="fill:#0066CC"></rect><rect x="128.3" y="230.9" width="13.88" height="15.22" style="fill:#fff;opacity:0.2"></rect><rect x="150.01" y="230.9" width="15.22" height="15.22" style="fill:#0066CC"></rect><rect x="151.35" y="230.9" width="13.88" height="15.22" style="fill:#fff;opacity:0.2"></rect><rect x="173.05" y="230.9" width="15.22" height="15.22" style="fill:#0066CC"></rect><rect x="174.39" y="230.9" width="13.88" height="15.22" style="fill:#fff;opacity:0.2"></rect><rect x="126.96" y="253.31" width="15.22" height="15.22" style="fill:#0066CC"></rect><rect x="128.3" y="253.31" width="13.88" height="15.22" style="fill:#fff;opacity:0.2"></rect><rect x="150.01" y="253.31" width="15.22" height="15.22" style="fill:#0066CC"></rect><rect x="151.35" y="253.31" width="13.88" height="15.22" style="fill:#fff;opacity:0.2"></rect><rect x="173.05" y="253.31" width="15.22" height="15.22" style="fill:#0066CC"></rect><rect x="174.39" y="253.31" width="13.88" height="15.22" style="fill:#fff;opacity:0.2"></rect><rect x="126.96" y="294.34" width="15.22" height="15.22" style="fill:#0066CC"></rect><rect x="128.3" y="294.34" width="13.88" height="15.22" style="fill:#fff;opacity:0.2"></rect><rect x="150.01" y="294.34" width="15.22" height="15.22" style="fill:#0066CC"></rect><rect x="151.35" y="294.34" width="13.88" height="15.22" style="fill:#fff;opacity:0.2"></rect><rect x="173.05" y="294.34" width="15.22" height="15.22" style="fill:#0066CC"></rect><rect x="174.39" y="294.34" width="13.88" height="15.22" style="fill:#fff;opacity:0.2"></rect><rect x="126.96" y="316.75" width="15.22" height="15.22" style="fill:#0066CC"></rect><rect x="128.3" y="316.75" width="13.88" height="15.22" style="fill:#fff;opacity:0.2"></rect><rect x="150.01" y="316.75" width="15.22" height="15.22" style="fill:#0066CC"></rect><rect x="151.35" y="316.75" width="13.88" height="15.22" style="fill:#fff;opacity:0.2"></rect><rect x="173.05" y="316.75" width="15.22" height="15.22" style="fill:#0066CC"></rect><rect x="174.39" y="316.75" width="13.88" height="15.22" style="fill:#fff;opacity:0.2"></rect><rect x="126.96" y="362.36" width="15.22" height="15.22" style="fill:#0066CC"></rect><rect x="128.3" y="362.36" width="13.88" height="15.22" style="fill:#fff;opacity:0.2"></rect><rect x="150.01" y="362.36" width="15.22" height="15.22" style="fill:#0066CC"></rect><rect x="151.35" y="362.36" width="13.88" height="15.22" style="fill:#fff;opacity:0.2"></rect><rect x="173.05" y="362.36" width="15.22" height="15.22" style="fill:#0066CC"></rect><rect x="174.39" y="362.36" width="13.88" height="15.22" style="fill:#fff;opacity:0.2"></rect><rect x="126.96" y="384.77" width="15.22" height="15.22" style="fill:#0066CC"></rect><rect x="128.3" y="384.77" width="13.88" height="15.22" style="fill:#fff;opacity:0.2"></rect><rect x="150.01" y="384.77" width="15.22" height="15.22" style="fill:#0066CC"></rect><rect x="151.35" y="384.77" width="13.88" height="15.22" style="fill:#fff;opacity:0.2"></rect><rect x="173.05" y="384.77" width="15.22" height="15.22" style="fill:#0066CC"></rect><rect x="174.39" y="384.77" width="13.88" height="15.22" style="fill:#fff;opacity:0.2"></rect><rect x="119.27" y="279.23" width="99.03" height="1.41" style="fill:#fff;opacity:0.2"></rect><rect x="119.27" y="349.37" width="99.03" height="1.41" style="fill:#fff;opacity:0.2"></rect><rect x="286.16" y="246.12" width="68.49" height="166.66" style="fill:#0066CC"></rect><rect x="286.16" y="246.12" width="52.1" height="166.66" style="fill:#fff;opacity:0.4"></rect><rect x="291.21" y="259.81" width="18.23" height="8.85" style="fill:#0066CC"></rect><rect x="292.42" y="259.81" width="17.02" height="8.85" style="fill:#fff;opacity:0.2"></rect><rect x="312.3" y="259.81" width="18.23" height="8.85" style="fill:#0066CC"></rect><rect x="313.51" y="259.81" width="17.02" height="8.85" style="fill:#fff;opacity:0.2"></rect><rect x="291.21" y="276.47" width="18.23" height="8.85" style="fill:#0066CC"></rect><rect x="292.42" y="276.47" width="17.02" height="8.85" style="fill:#fff;opacity:0.2"></rect><rect x="312.3" y="276.47" width="18.23" height="8.85" style="fill:#0066CC"></rect><rect x="313.51" y="276.47" width="17.02" height="8.85" style="fill:#fff;opacity:0.2"></rect><rect x="291.21" y="297.76" width="18.23" height="8.85" style="fill:#0066CC"></rect><rect x="292.42" y="297.76" width="17.02" height="8.85" style="fill:#fff;opacity:0.2"></rect><rect x="312.3" y="297.76" width="18.23" height="8.85" style="fill:#0066CC"></rect><rect x="313.51" y="297.76" width="17.02" height="8.85" style="fill:#fff;opacity:0.2"></rect><rect x="291.21" y="309.99" width="18.23" height="8.85" style="fill:#0066CC"></rect><rect x="292.42" y="309.99" width="17.02" height="8.85" style="fill:#fff;opacity:0.2"></rect><rect x="312.3" y="309.99" width="18.23" height="8.85" style="fill:#0066CC"></rect><rect x="313.51" y="309.99" width="17.02" height="8.85" style="fill:#fff;opacity:0.2"></rect><rect x="291.21" y="330.09" width="18.23" height="8.85" style="fill:#0066CC"></rect><rect x="292.42" y="330.09" width="17.02" height="8.85" style="fill:#fff;opacity:0.2"></rect><rect x="312.3" y="330.09" width="18.23" height="8.85" style="fill:#0066CC"></rect><rect x="313.51" y="330.09" width="17.02" height="8.85" style="fill:#fff;opacity:0.2"></rect><rect x="291.21" y="342.32" width="18.23" height="8.85" style="fill:#0066CC"></rect><rect x="292.42" y="342.32" width="17.02" height="8.85" style="fill:#fff;opacity:0.2"></rect><rect x="312.3" y="342.32" width="18.23" height="8.85" style="fill:#0066CC"></rect><rect x="313.51" y="342.32" width="17.02" height="8.85" style="fill:#fff;opacity:0.2"></rect><rect x="291.21" y="364.19" width="18.23" height="8.85" style="fill:#0066CC"></rect><rect x="292.42" y="364.19" width="17.02" height="8.85" style="fill:#fff;opacity:0.2"></rect><rect x="312.3" y="364.19" width="18.23" height="8.85" style="fill:#0066CC"></rect><rect x="313.51" y="364.19" width="17.02" height="8.85" style="fill:#fff;opacity:0.2"></rect><rect x="291.21" y="380.35" width="18.23" height="8.85" style="fill:#0066CC"></rect><rect x="292.42" y="380.35" width="17.02" height="8.85" style="fill:#fff;opacity:0.2"></rect><rect x="312.3" y="380.35" width="18.23" height="8.85" style="fill:#0066CC"></rect><rect x="313.51" y="380.35" width="17.02" height="8.85" style="fill:#fff;opacity:0.2"></rect><rect x="282.94" y="241.19" width="71.72" height="5.32" style="fill:#0066CC"></rect><rect x="338.27" y="241.19" width="16.39" height="5.32" style="opacity:0.2"></rect><rect x="279.71" y="319.71" width="6.45" height="10.09" style="fill:#e0e0e0"></rect><rect x="279.71" y="336.22" width="6.45" height="10.09" style="fill:#e0e0e0"></rect><rect x="279.71" y="352.27" width="6.45" height="10.09" style="fill:#e0e0e0"></rect><rect x="279.71" y="369.24" width="6.45" height="10.09" style="fill:#e0e0e0"></rect><rect x="279.71" y="385.75" width="6.45" height="10.09" style="fill:#e0e0e0"></rect><rect x="218.3" y="309.57" width="67.86" height="103.21" style="fill:#0066CC"></rect><rect x="218.3" y="309.56" width="56.4" height="103.22" style="fill:#fff;opacity:0.30000000000000004"></rect><rect x="223.37" y="319.71" width="45.86" height="10.09" style="fill:#0066CC"></rect><rect x="223.37" y="336.22" width="45.86" height="10.09" style="fill:#0066CC"></rect><rect x="223.37" y="352.73" width="45.86" height="10.09" style="fill:#0066CC"></rect><rect x="223.37" y="369.24" width="45.86" height="10.09" style="fill:#0066CC"></rect><rect x="223.37" y="385.75" width="45.86" height="10.09" style="fill:#0066CC"></rect><g style="opacity:0.1"><rect x="225.06" y="319.71" width="44.17" height="10.09" style="fill:#fff"></rect><rect x="225.06" y="336.22" width="44.17" height="10.09" style="fill:#fff"></rect><rect x="225.06" y="352.73" width="44.17" height="10.09" style="fill:#fff"></rect><rect x="225.06" y="369.24" width="44.17" height="10.09" style="fill:#fff"></rect><rect x="225.06" y="385.75" width="44.17" height="10.09" style="fill:#fff"></rect></g><polygon points="78.58 341.27 33.05 341.27 33.05 412.78 105.71 412.78 105.71 341.27 105.71 309.56 78.58 341.27" style="fill:#0066CC"></polygon><rect x="105.71" y="309.56" width="13.56" height="103.22" style="fill:#0066CC"></rect><rect x="105.71" y="309.56" width="13.56" height="103.22" style="fill:#fff;opacity:0.7000000000000001"></rect><rect x="200.29" y="222.67" width="18.01" height="190.11" style="fill:#fff;opacity:0.7000000000000001"></rect><rect x="274.7" y="309.56" width="11.46" height="103.22" style="fill:#fff;opacity:0.6000000000000001"></rect><rect x="338.27" y="246.51" width="16.39" height="166.27" style="fill:#fff;opacity:0.7000000000000001"></rect><rect x="361.67" y="217.94" width="2.58" height="10.65" style="fill:#fff;opacity:0.5"></rect><rect x="361.67" y="235.86" width="2.58" height="10.65" style="fill:#fff;opacity:0.5"></rect><rect x="361.67" y="254.49" width="2.58" height="10.65" style="fill:#fff;opacity:0.5"></rect><rect x="361.67" y="273.12" width="2.58" height="10.65" style="fill:#fff;opacity:0.5"></rect><rect x="361.67" y="291.74" width="2.58" height="10.65" style="fill:#fff;opacity:0.5"></rect><rect x="361.67" y="310.37" width="2.58" height="10.65" style="fill:#fff;opacity:0.5"></rect><rect x="361.67" y="330.9" width="2.58" height="10.65" style="fill:#fff;opacity:0.5"></rect><rect x="361.67" y="351.43" width="2.58" height="10.65" style="fill:#fff;opacity:0.5"></rect><rect x="361.67" y="371.95" width="2.58" height="10.65" style="fill:#fff;opacity:0.5"></rect><rect x="361.67" y="392.48" width="2.58" height="10.65" style="fill:#fff;opacity:0.5"></rect><rect x="384.43" y="203.75" width="80.43" height="209.03" style="fill:#0066CC"></rect><rect x="354.65" y="203.75" width="80.43" height="209.03" style="fill:#0066CC"></rect><rect x="435.09" y="206.75" width="29.77" height="206.03" style="fill:#fff;opacity:0.7000000000000001"></rect><rect x="442.45" y="217.94" width="22.41" height="10.65" style="fill:#0066CC"></rect><rect x="442.45" y="235.46" width="22.41" height="10.65" style="fill:#0066CC"></rect><rect x="442.45" y="252.99" width="22.41" height="10.65" style="fill:#0066CC"></rect><rect x="442.45" y="273.11" width="22.41" height="10.65" style="fill:#0066CC"></rect><rect x="442.45" y="291.74" width="22.41" height="10.65" style="fill:#0066CC"></rect><rect x="442.45" y="310.37" width="22.41" height="10.65" style="fill:#0066CC"></rect><rect x="442.45" y="330.89" width="22.41" height="10.65" style="fill:#0066CC"></rect><rect x="442.45" y="351.42" width="22.41" height="10.65" style="fill:#0066CC"></rect><rect x="442.45" y="371.95" width="22.41" height="10.65" style="fill:#0066CC"></rect><rect x="442.45" y="392.48" width="22.41" height="10.65" style="fill:#0066CC"></rect><rect x="442.45" y="217.94" width="22.41" height="10.65" style="fill:#fff;opacity:0.30000000000000004"></rect><rect x="442.45" y="235.46" width="22.41" height="10.65" style="fill:#fff;opacity:0.30000000000000004"></rect><rect x="442.45" y="252.99" width="22.41" height="10.65" style="fill:#fff;opacity:0.30000000000000004"></rect><rect x="442.45" y="273.11" width="22.41" height="10.65" style="fill:#fff;opacity:0.30000000000000004"></rect><rect x="442.45" y="291.74" width="22.41" height="10.65" style="fill:#fff;opacity:0.30000000000000004"></rect><rect x="442.45" y="310.37" width="22.41" height="10.65" style="fill:#fff;opacity:0.30000000000000004"></rect><rect x="442.45" y="330.89" width="22.41" height="10.65" style="fill:#fff;opacity:0.30000000000000004"></rect><rect x="442.45" y="351.42" width="22.41" height="10.65" style="fill:#fff;opacity:0.30000000000000004"></rect><rect x="442.45" y="371.95" width="22.41" height="10.65" style="fill:#fff;opacity:0.30000000000000004"></rect><rect x="442.45" y="392.48" width="22.41" height="10.65" style="fill:#fff;opacity:0.30000000000000004"></rect><rect x="354.65" y="203.75" width="80.43" height="209.03" style="fill:#fff;opacity:0.4"></rect><rect x="361.67" y="217.94" width="66.4" height="10.65" style="fill:#0066CC"></rect><rect x="364.25" y="217.94" width="63.82" height="10.65" style="fill:#fff;opacity:0.2"></rect><rect x="361.67" y="235.86" width="66.4" height="10.65" style="fill:#0066CC"></rect><rect x="364.25" y="235.86" width="63.82" height="10.65" style="fill:#fff;opacity:0.2"></rect><rect x="361.67" y="254.49" width="66.4" height="10.65" style="fill:#0066CC"></rect><rect x="364.25" y="254.49" width="63.82" height="10.65" style="fill:#fff;opacity:0.2"></rect><rect x="361.67" y="273.12" width="66.4" height="10.65" style="fill:#0066CC"></rect><rect x="364.25" y="273.12" width="63.82" height="10.65" style="fill:#fff;opacity:0.2"></rect><rect x="361.67" y="291.74" width="66.4" height="10.65" style="fill:#0066CC"></rect><rect x="364.25" y="291.74" width="63.82" height="10.65" style="fill:#fff;opacity:0.2"></rect><rect x="361.67" y="310.37" width="66.4" height="10.65" style="fill:#0066CC"></rect><rect x="364.25" y="310.37" width="63.82" height="10.65" style="fill:#fff;opacity:0.2"></rect><rect x="361.67" y="330.9" width="66.4" height="10.65" style="fill:#0066CC"></rect><rect x="364.25" y="330.9" width="63.82" height="10.65" style="fill:#fff;opacity:0.2"></rect><rect x="361.67" y="351.43" width="66.4" height="10.65" style="fill:#0066CC"></rect><rect x="364.25" y="351.43" width="63.82" height="10.65" style="fill:#fff;opacity:0.2"></rect><rect x="361.67" y="371.95" width="66.4" height="10.65" style="fill:#0066CC"></rect><rect x="364.25" y="371.95" width="63.82" height="10.65" style="fill:#fff;opacity:0.2"></rect><rect x="361.67" y="392.48" width="66.4" height="10.65" style="fill:#0066CC"></rect><rect x="364.25" y="392.48" width="63.82" height="10.65" style="fill:#fff;opacity:0.2"></rect><rect x="435.09" y="197.54" width="28.05" height="4.1" style="fill:#0066CC"></rect><rect x="354.65" y="196.54" width="108.49" height="5.1" style="fill:#f0f0f0"></rect><rect x="352.38" y="201.65" width="114.57" height="5.1" style="fill:#0066CC"></rect><rect x="352.38" y="192.44" width="114.57" height="5.1" style="fill:#0066CC"></rect><rect x="352.38" y="201.65" width="114.57" height="5.1" style="opacity:0.05"></rect><rect x="352.38" y="192.44" width="114.57" height="5.1" style="opacity:0.05"></rect><rect x="286.16" y="290.53" width="68.49" height="1.52" style="fill:#fff;opacity:0.2"></rect><rect x="286.16" y="323.46" width="68.49" height="1.52" style="fill:#fff;opacity:0.2"></rect><rect x="286.16" y="356.67" width="68.49" height="1.52" style="fill:#fff;opacity:0.2"></rect><rect x="200.29" y="219.52" width="19.17" height="3.15" style="opacity:0.2"></rect><rect x="200.29" y="213.21" width="19.17" height="3.15" style="opacity:0.2"></rect><rect x="435.09" y="201.65" width="31.86" height="5.1" style="opacity:0.2"></rect><rect x="435.09" y="192.44" width="31.86" height="5.1" style="opacity:0.2"></rect><polygon points="78.58 341.27 33.05 341.27 33.05 412.78 105.71 412.78 105.71 341.27 105.71 309.56 78.58 341.27" style="fill:#fff;opacity:0.4"></polygon><rect x="39.64" y="355.77" width="10.81" height="10.81" style="fill:#0066CC"></rect><rect x="61.64" y="355.77" width="10.81" height="10.81" style="fill:#0066CC"></rect><rect x="83.64" y="355.77" width="10.81" height="10.81" style="fill:#0066CC"></rect><rect x="39.64" y="373.96" width="10.81" height="10.81" style="fill:#0066CC"></rect><rect x="61.64" y="373.96" width="10.81" height="10.81" style="fill:#0066CC"></rect><rect x="83.64" y="373.96" width="10.81" height="10.81" style="fill:#0066CC"></rect><rect x="39.64" y="392.15" width="10.81" height="10.81" style="fill:#0066CC"></rect><rect x="61.64" y="392.15" width="10.81" height="10.81" style="fill:#0066CC"></rect><rect x="83.64" y="392.15" width="10.81" height="10.81" style="fill:#0066CC"></rect><rect x="40.84" y="355.77" width="10.81" height="10.81" style="fill:#fff;opacity:0.2"></rect><rect x="62.83" y="355.77" width="10.81" height="10.81" style="fill:#fff;opacity:0.2"></rect><rect x="84.83" y="355.77" width="10.81" height="10.81" style="fill:#fff;opacity:0.2"></rect><rect x="40.84" y="373.96" width="10.81" height="10.81" style="fill:#fff;opacity:0.2"></rect><rect x="62.83" y="373.96" width="10.81" height="10.81" style="fill:#fff;opacity:0.2"></rect><rect x="84.83" y="373.96" width="10.81" height="10.81" style="fill:#fff;opacity:0.2"></rect><rect x="40.84" y="392.15" width="10.81" height="10.81" style="fill:#fff;opacity:0.2"></rect><rect x="62.83" y="392.15" width="10.81" height="10.81" style="fill:#fff;opacity:0.2"></rect><rect x="84.83" y="392.15" width="10.81" height="10.81" style="fill:#fff;opacity:0.2"></rect></g><g id="freepik--Street--inject-59"><polygon points="244.1 421.07 237.84 452.83 258.85 452.83 256.72 421.07 244.1 421.07" style="fill:#0066CC"></polygon><polygon points="263.74 421.07 272.74 452.83 286.82 452.83 275.28 421.07 263.74 421.07" style="fill:#0066CC"></polygon><polygon points="283.2 421.07 301.72 452.83 317.7 452.83 293.63 421.07 283.2 421.07" style="fill:#0066CC"></polygon><polygon points="301.99 421.07 332.68 452.83 351.79 452.83 313.44 421.07 301.99 421.07" style="fill:#0066CC"></polygon><polygon points="236.26 421.07 227.26 452.83 213.18 452.83 224.72 421.07 236.26 421.07" style="fill:#0066CC"></polygon><polygon points="216.8 421.07 198.28 452.83 182.3 452.83 206.37 421.07 216.8 421.07" style="fill:#0066CC"></polygon><polygon points="198.01 421.07 167.32 452.83 148.21 452.83 186.56 421.07 198.01 421.07" style="fill:#0066CC"></polygon><polygon points="244.1 421.07 237.84 452.83 258.85 452.83 256.72 421.07 244.1 421.07" style="fill:#fff;opacity:0.4"></polygon><polygon points="263.74 421.07 272.74 452.83 286.82 452.83 275.28 421.07 263.74 421.07" style="fill:#fff;opacity:0.4"></polygon><polygon points="283.2 421.07 301.72 452.83 317.7 452.83 293.63 421.07 283.2 421.07" style="fill:#fff;opacity:0.4"></polygon><polygon points="301.99 421.07 332.68 452.83 351.79 452.83 313.44 421.07 301.99 421.07" style="fill:#fff;opacity:0.4"></polygon><polygon points="236.26 421.07 227.26 452.83 213.18 452.83 224.72 421.07 236.26 421.07" style="fill:#fff;opacity:0.4"></polygon><polygon points="216.8 421.07 198.28 452.83 182.3 452.83 206.37 421.07 216.8 421.07" style="fill:#fff;opacity:0.4"></polygon><polygon points="198.01 421.07 167.32 452.83 148.21 452.83 186.56 421.07 198.01 421.07" style="fill:#fff;opacity:0.4"></polygon><path d="M100.66,409.11A26.49,26.49,0,0,0,126,379.29c-.66-5.21-2.84-10.08-4.38-15.1-2.91-9.49-3.84-20.2-10.52-27.55a22,22,0,0,0-32.51,0c-4.33,4.75-6.38,11.17-7.27,17.54S70.55,367,70,373.37c-.5,5.31-1.51,10.61-1.29,15.94s1.82,10.88,5.73,14.51A27.52,27.52,0,0,0,81.06,408a24.23,24.23,0,0,0,7.4,2.66,8.82,8.82,0,0,0,7.35-2.05A16.78,16.78,0,0,0,100.66,409.11Z" style="fill:#0066CC"></path><path d="M100.66,409.11A26.49,26.49,0,0,0,126,379.29c-.66-5.21-2.84-10.08-4.38-15.1-2.91-9.49-3.84-20.2-10.52-27.55a22,22,0,0,0-32.51,0c-4.33,4.75-6.38,11.17-7.27,17.54S70.55,367,70,373.37c-.5,5.31-1.51,10.61-1.29,15.94s1.82,10.88,5.73,14.51A27.52,27.52,0,0,0,81.06,408a24.23,24.23,0,0,0,7.4,2.66,8.82,8.82,0,0,0,7.35-2.05A16.78,16.78,0,0,0,100.66,409.11Z" style="fill:#fff;opacity:0.7000000000000001"></path><path d="M88.43,428.5v-1.33l2.21-1.87s2.64-27,3.09-34.82,1-20.14-1.88-29.08a83.21,83.21,0,0,1,5.41,19s3.42-12.3,9.49-20.13c0,0-7.4,18.9-6.4,36.48a198.35,198.35,0,0,0,3.75,29.73l1.32.88.11,1.11Z" style="fill:#0066CC"></path><path d="M95.18,385.12s-1.92-8.52-7.09-12.74c0,0,4.33,6,5.75,16.08s2.93,3.68,2.93,3.68Z" style="fill:#0066CC"></path><path d="M92.92,408.17a8.71,8.71,0,0,0-3.86-5s2,1.92,2.92,8.07S95.2,414,95.2,414l.18-3.39Z" style="fill:#0066CC"></path><path d="M92,411.23c-1-6.15-2.92-8.07-2.92-8.07a9,9,0,0,1,3.32,3.63c.6-6.55,1.16-13.08,1.35-16.31,0-.64.07-1.32.1-2-1.42-10.12-5.74-16.08-5.74-16.08,3,2.45,4.91,6.36,6,9.2.09-6.66-.3-14.18-2.22-20.18a83.21,83.21,0,0,1,5.41,19s3.42-12.3,9.49-20.13c0,0-7.4,18.9-6.4,36.48a198.35,198.35,0,0,0,3.75,29.73l1.32.88.11,1.11H88.43v-1.33l2.21-1.87S91.27,418.78,92,411.23Z" style="opacity:0.2"></path><path d="M395.22,413.39a29.92,29.92,0,0,1-28.61-33.67c.75-5.88,3.21-11.38,4.95-17,3.29-10.72,4.34-22.81,11.88-31.1a24.81,24.81,0,0,1,36.69,0c4.89,5.35,7.21,12.61,8.22,19.79s.85,14.47,1.52,21.7c.56,6,1.7,12,1.46,18s-2.06,12.28-6.47,16.39a31.18,31.18,0,0,1-7.52,4.73,27.29,27.29,0,0,1-8.36,3,9.94,9.94,0,0,1-8.3-2.32A18.86,18.86,0,0,1,395.22,413.39Z" style="fill:#0066CC"></path><path d="M395.22,413.39a29.92,29.92,0,0,1-28.61-33.67c.75-5.88,3.21-11.38,4.95-17,3.29-10.72,4.34-22.81,11.88-31.1a24.81,24.81,0,0,1,36.69,0c4.89,5.35,7.21,12.61,8.22,19.79s.85,14.47,1.52,21.7c.56,6,1.7,12,1.46,18s-2.06,12.28-6.47,16.39a31.18,31.18,0,0,1-7.52,4.73,27.29,27.29,0,0,1-8.36,3,9.94,9.94,0,0,1-8.3-2.32A18.86,18.86,0,0,1,395.22,413.39Z" style="fill:#fff;opacity:0.7000000000000001"></path><path d="M409,435.27v-1.49l-2.49-2.12s-3-30.51-3.49-39.3-1.12-22.74,2.12-32.83A93.62,93.62,0,0,0,399.05,381s-3.86-13.88-10.71-22.73c0,0,8.35,21.34,7.23,41.19A225.17,225.17,0,0,1,391.33,433l-1.49,1-.13,1.24Z" style="fill:#0066CC"></path><path d="M401.4,386.31s2.16-9.62,8-14.39c0,0-4.89,6.73-6.49,18.16s-3.32,4.14-3.32,4.14Z" style="fill:#0066CC"></path><path d="M404,412.33a9.84,9.84,0,0,1,4.36-5.66s-2.23,2.17-3.29,9.11-3.65,3.08-3.65,3.08l-.19-3.82Z" style="fill:#0066CC"></path><path d="M405,415.78c1.06-6.94,3.29-9.11,3.29-9.11a10.06,10.06,0,0,0-3.76,4.1c-.67-7.39-1.3-14.77-1.51-18.41,0-.73-.08-1.5-.12-2.29,1.6-11.42,6.49-18.15,6.49-18.15-3.4,2.77-5.55,7.18-6.76,10.39-.1-7.52.34-16,2.51-22.78A93.62,93.62,0,0,0,399.05,381s-3.86-13.88-10.71-22.73c0,0,8.35,21.34,7.23,41.19A225.17,225.17,0,0,1,391.33,433l-1.49,1-.13,1.24H409v-1.49l-2.49-2.12S405.81,424.31,405,415.78Z" style="opacity:0.2"></path></g></svg>