<?xml version="1.0" encoding="iso-8859-1"?>
<!-- Generator: Adobe Illustrator 19.0.0, SVG Export Plug-In . SVG Version: 6.00 Build 0)  -->
<svg version="1.1" id="Layer_1" xmlns="http://www.w3.org/2000/svg" xmlns:xlink="http://www.w3.org/1999/xlink" x="0px" y="0px"
	 viewBox="0 0 512 512" style="enable-background:new 0 0 512 512;" xml:space="preserve">
<g>
	<g>
		<g>
			<path d="M12.678,249.492h133.415c6.991,0,12.678-5.687,12.678-12.677v-59.026c0-6.991-5.687-12.678-12.678-12.678H12.678
				C5.687,165.11,0,170.797,0,177.788v59.026C0,243.804,5.687,249.492,12.678,249.492z M15.951,181.061h126.867v52.48H15.951
				V181.061z"/>
			<path d="M322.707,165.11H189.292c-6.991,0-12.678,5.687-12.678,12.678v59.026c0,6.99,5.687,12.677,12.678,12.677h133.415
				c6.991,0,12.678-5.687,12.678-12.677v-59.026C335.385,170.797,329.698,165.11,322.707,165.11z M319.434,233.541H192.565v-52.48
				h126.868V233.541z"/>
			<path d="M499.322,165.11H365.908c-6.991,0-12.678,5.687-12.678,12.678v59.026c0,6.99,5.687,12.677,12.678,12.677h133.415
				c6.991,0,12.678-5.687,12.678-12.677v-59.026C512,170.797,506.313,165.11,499.322,165.11z M369.181,233.541v-52.48h126.867v52.48
				H369.181z"/>
			<path d="M146.091,361.895H12.678C5.687,361.895,0,367.581,0,374.572v15.062c0,4.405,3.571,7.976,7.976,7.976
				s7.976-3.571,7.976-7.976v-11.788h126.867v52.48H15.951v-11.094c0-4.405-3.571-7.976-7.976-7.976S0,414.827,0,419.232V433.6
				c0,6.991,5.687,12.678,12.678,12.678h133.415c6.991,0,12.678-5.687,12.678-12.678v-59.026
				C158.769,367.581,153.082,361.895,146.091,361.895z"/>
			<path d="M322.707,361.895H189.292c-6.991,0-12.678,5.687-12.678,12.677v59.026c0,6.991,5.687,12.678,12.678,12.678h133.415
				c6.991,0,12.678-5.687,12.678-12.678v-59.026C335.385,367.582,329.698,361.895,322.707,361.895z M319.434,430.325H192.565v-52.48
				h126.868V430.325z"/>
			<path d="M499.322,361.895H365.908c-6.991,0-12.678,5.687-12.678,12.677v59.026c0,6.991,5.687,12.678,12.678,12.678h133.415
				c6.991,0,12.678-5.687,12.678-12.678v-59.026C512,367.582,506.313,361.895,499.322,361.895z M369.181,430.325v-52.48h126.867
				v52.48H369.181z"/>
			<path d="M107.385,150.105h133.415c6.991,0,12.678-5.687,12.678-12.678V78.4c0-6.991-5.687-12.678-12.678-12.678H107.385
				c-6.99,0-12.677,5.687-12.677,12.678v59.026C94.708,144.418,100.395,150.105,107.385,150.105z M110.659,81.674h126.867v52.48
				H110.659V81.674z"/>
			<path d="M284,150.105h133.415c6.991,0,12.678-5.687,12.678-12.678V78.4c0-6.991-5.687-12.678-12.678-12.678h-25.706
				c-4.405,0-7.976,3.571-7.976,7.976c0,4.405,3.571,7.976,7.976,7.976h22.432v52.48H287.274v-52.48h73.605
				c4.405,0,7.976-3.571,7.976-7.976s-3.571-7.976-7.976-7.976h-76.878c-6.991,0-12.678,5.687-12.678,12.678v59.026
				C271.322,144.418,277.01,150.105,284,150.105z"/>
			<path d="M107.385,264.498c-6.99,0-12.677,5.687-12.677,12.678v59.026c0,6.991,5.687,12.678,12.677,12.678h133.415
				c6.991,0,12.678-5.687,12.678-12.678v-59.026c0-6.991-5.687-12.678-12.678-12.678H107.385z M237.526,332.929H110.659v-52.48
				h126.867V332.929z"/>
			<path d="M271.322,277.176v59.026c0,6.991,5.687,12.678,12.678,12.678h133.415c6.991,0,12.678-5.687,12.678-12.678v-59.026
				c0-6.991-5.687-12.678-12.678-12.678H284C277.01,264.498,271.322,270.185,271.322,277.176z M287.274,280.449h126.868v52.48
				H287.274V280.449z"/>
			<path d="M499.322,65.723h-38.707c-6.991,0-12.678,5.687-12.678,12.678v59.026c0,6.991,5.687,12.678,12.678,12.678h38.707
				c6.991,0,12.678-5.687,12.678-12.678V78.4C512,71.41,506.313,65.723,499.322,65.723z M496.049,134.154L496.049,134.154h-32.161
				v-52.48h32.161V134.154z"/>
			<path d="M499.322,264.498h-38.707c-6.991,0-12.678,5.687-12.678,12.678v59.026c0,6.991,5.687,12.678,12.678,12.678h38.707
				c6.991,0,12.678-5.687,12.678-12.678v-59.026C512,270.185,506.313,264.498,499.322,264.498z M496.049,332.929L496.049,332.929
				h-32.161v-52.48h32.161V332.929z"/>
			<path d="M12.678,150.105h51.507c6.991,0,12.678-5.687,12.678-12.678V78.4c0-6.991-5.687-12.678-12.678-12.678H12.678
				C5.687,65.723,0,71.41,0,78.4v59.026C0,144.418,5.687,150.105,12.678,150.105z M15.951,81.674h44.961v52.48H15.951V81.674z"/>
			<path d="M12.678,348.88h51.507c6.991,0,12.678-5.687,12.678-12.678v-59.026c0-6.991-5.687-12.678-12.678-12.678H12.678
				C5.687,264.498,0,270.185,0,277.176v59.026C0,343.192,5.687,348.88,12.678,348.88z M15.951,280.449h44.961v52.48H15.951V280.449z
				"/>
		</g>
	</g>
</g>
<g>
</g>
<g>
</g>
<g>
</g>
<g>
</g>
<g>
</g>
<g>
</g>
<g>
</g>
<g>
</g>
<g>
</g>
<g>
</g>
<g>
</g>
<g>
</g>
<g>
</g>
<g>
</g>
<g>
</g>
</svg>
