<svg xmlns="http://www.w3.org/2000/svg" viewBox="0 0 400 100" width="400" height="100">
	<style>
		tspan { white-space:pre }
	</style>
	<path id="Text layer 1" fill="#88bf6f" d="M12.87 51.46Q12.87 52.09 12.96 54.43Q13.05 56.77 13.05 60.82Q13.05 62.35 12.96 63.43Q12.87 64.51 12.69 65.05Q12.87 65.77 12.87 66.58Q12.87 67.39 12.87 68.2Q12.87 70 12.6 71.98Q12.42 73.87 12.33 75.67Q12.6 77.47 12.6 79.36Q12.6 80.89 12.42 82.51Q12.24 84.13 11.88 85.93Q11.43 87.82 8.19 87.82Q6.39 87.82 5.49 86.92Q4.68 86.02 4.23 84.67Q3.87 83.23 3.87 81.43Q3.87 79.54 3.87 77.65Q3.87 74.77 4.23 70.99Q4.59 67.12 4.59 63.7Q4.59 60.37 4.05 57.4Q4.14 57.04 4.23 55.42Q4.41 53.71 4.5 51.82Q4.59 49.93 4.68 48.31Q4.77 46.6 4.86 46.24Q4.59 44.89 4.59 40.57Q4.59 34.09 4.77 30.31Q4.95 26.53 5.4 24.64Q5.85 22.75 6.66 22.3Q7.47 21.76 8.82 21.76Q11.43 21.76 12.15 23.2Q12.96 24.55 12.96 28.24Q12.96 29.23 12.96 30.49Q12.96 31.66 12.78 33.1Q12.78 33.46 12.87 37.42Q12.96 41.38 12.96 46.96Q12.96 48.22 12.87 49.39Q12.87 50.47 12.87 51.46Z" />
	<path id="Text layer 1" fill="#000000" d="" />
	<path id="Text layer 1" fill="#3a54b4" d="M101.43 72.7L102.51 72.7Q105.48 74.23 105.48 77.11Q105.48 79 104.49 79.81Q103.59 80.62 101.79 80.98Q100.08 81.25 97.47 81.34Q94.86 81.34 91.62 81.52Q90.54 81.16 83.7 80.8Q82.71 80.89 81.81 80.98Q80.91 80.98 80.1 80.98Q75.24 80.98 73.44 79.54Q72.99 75.94 72.72 72.88Q72.54 69.82 72.54 67.3Q72.54 63.34 72.81 60.46Q73.17 57.49 73.17 55.15Q73.17 52.27 72.9 50.65L73.44 41.2Q73.8 37.78 74.25 35.35Q74.79 32.92 75.51 31.66Q76.05 30.94 80.91 29.86L86.67 28.6Q87.21 28.51 88.92 28.33Q90.63 28.15 92.43 27.97Q94.32 27.79 95.76 27.7Q97.2 27.61 97.11 27.61L97.47 27.61Q98.46 27.61 99.45 28.96Q100.53 30.31 100.53 32.11Q100.53 33.01 100.44 33.73Q100.44 34.45 99.9 34.99Q99.36 35.44 98.1 35.71Q96.84 35.98 94.41 36.07Q90.45 36.25 89.01 36.88L88.56 36.88Q86.22 36.88 82.71 37.96Q82.35 38.41 82.17 39.58Q81.99 40.66 81.9 41.92Q81.81 43.09 81.72 43.99Q81.72 44.8 81.72 44.53Q81.63 44.98 81.54 45.43Q81.54 45.88 81.54 46.6Q81.54 47.23 81.54 48.04Q81.63 48.76 81.72 49.66Q84.51 49.39 86.22 49.12Q88.02 48.76 89.01 48.76Q90.9 48.76 92.7 48.67Q94.5 48.58 95.85 48.94Q97.29 49.21 98.1 50.2Q98.91 51.1 98.91 53.17Q98.91 55.51 97.38 56.23Q95.94 56.95 92.25 57.04Q87.93 57.22 87.03 57.4Q86.49 57.4 85.86 57.4Q85.32 57.31 84.6 57.31Q84.15 57.31 83.52 57.31Q82.98 57.22 82.44 57.31Q81.9 57.31 81.45 57.67Q81.09 57.94 81.09 58.75Q81.09 59.29 81.09 60.19Q81.18 61 81.18 61.72Q81.18 62.8 81.09 63.88Q81.09 64.96 81 66.22Q81 67.39 80.91 68.92Q80.91 70.45 80.91 72.52Q81.45 72.61 82.98 72.7Q84.6 72.79 86.31 72.88Q88.11 72.97 89.73 73.15Q91.35 73.24 91.89 73.33Q91.98 73.33 93.15 73.24Q94.32 73.15 96.57 72.97Q99.63 72.7 101.43 72.7ZM151.83 66.85Q151.56 67.93 150.48 69.46Q149.49 70.99 147.96 72.61Q146.43 74.14 144.63 75.4Q142.92 76.66 141.3 77.2Q136.62 79.27 130.77 79.27Q128.88 79.27 127.44 79.18Q126.09 79.09 124.74 78.64Q123.39 78.19 122.04 77.2Q120.69 76.21 118.98 74.32Q117.09 72.34 116.01 70.45Q114.93 68.47 114.39 66.67Q113.85 64.87 113.67 63.25Q113.49 61.54 113.49 60.19Q113.49 57.22 114.21 53.17Q114.93 49.12 118.08 43.27Q119.25 41.11 119.88 39.85Q120.51 38.59 120.6 38.14L126.18 34.72Q129.06 33.01 131.67 32.02Q134.28 30.94 137.43 30.94Q138.33 30.94 140.13 30.94Q141.93 30.94 143.64 31.39Q145.44 31.75 146.79 32.83Q148.14 33.82 148.14 35.8Q148.14 39.13 144.18 39.67Q144.27 39.67 143.64 39.58Q143.01 39.49 141.93 39.4Q140.85 39.31 139.5 39.22Q138.15 39.13 136.8 39.13Q134.46 39.13 132.03 40.48Q129.69 41.74 126.27 44.89Q124.47 48.67 123.57 50.83Q122.76 52.9 122.76 53.62Q121.77 55.42 121.77 58.93Q121.77 65.41 124.11 68.29Q126.45 71.08 130.5 71.08Q133.11 71.08 138.6 69.64Q141.93 67.66 144.36 63.34Q145.89 61.81 147.51 61.81Q149.22 61.81 150.57 63.16Q151.92 64.51 151.92 66.22Q151.92 66.4 151.83 66.58Q151.83 66.67 151.83 66.85ZM203.13 55.06L202.95 61.36Q201.78 66.04 196.29 72.16Q195.57 72.43 194.4 73.24Q193.32 74.05 191.52 74.95Q189.81 75.76 187.29 76.39Q184.77 77.02 181.35 77.02Q174.51 77.02 169.92 73.42Q165.33 69.73 162.81 61.9Q162.72 61.27 162.72 60.64Q162.72 60.01 162.72 59.29Q162.72 53.71 163.89 49.48Q165.06 45.16 167.04 42.01Q169.02 38.86 171.54 36.7Q174.15 34.54 176.94 33.19Q181.53 31.93 185.94 31.93Q189.09 31.93 192.15 33.55Q195.21 35.17 197.55 38.14Q199.98 41.11 201.42 45.43Q202.95 49.66 203.13 55.06ZM194.67 61.09Q195.3 57.4 195.3 55.33Q195.3 51.91 194.31 49.03Q193.32 46.15 191.97 44.08Q190.62 41.92 189.09 40.75Q187.65 39.49 186.66 39.49Q181.89 39.49 178.83 41.65Q175.86 43.72 174.15 46.69Q172.44 49.66 171.81 52.9Q171.18 56.14 171.18 58.39Q171.18 60.46 171.81 62.44Q172.53 64.33 173.79 65.86Q175.14 67.3 176.94 68.2Q178.74 69.1 181.08 69.1Q186.57 69.1 189.72 67.12Q192.87 65.05 194.67 61.09ZM252.09 66.85Q251.82 67.93 250.74 69.46Q249.75 70.99 248.22 72.61Q246.69 74.14 244.89 75.4Q243.18 76.66 241.56 77.2Q236.88 79.27 231.03 79.27Q229.14 79.27 227.7 79.18Q226.35 79.09 225 78.64Q223.65 78.19 222.3 77.2Q220.95 76.21 219.24 74.32Q217.35 72.34 216.27 70.45Q215.19 68.47 214.65 66.67Q214.11 64.87 213.93 63.25Q213.75 61.54 213.75 60.19Q213.75 57.22 214.47 53.17Q215.19 49.12 218.34 43.27Q219.51 41.11 220.14 39.85Q220.77 38.59 220.86 38.14L226.44 34.72Q229.32 33.01 231.93 32.02Q234.54 30.94 237.69 30.94Q238.59 30.94 240.39 30.94Q242.19 30.94 243.9 31.39Q245.7 31.75 247.05 32.83Q248.4 33.82 248.4 35.8Q248.4 39.13 244.44 39.67Q244.53 39.67 243.9 39.58Q243.27 39.49 242.19 39.4Q241.11 39.31 239.76 39.22Q238.41 39.13 237.06 39.13Q234.72 39.13 232.29 40.48Q229.95 41.74 226.53 44.89Q224.73 48.67 223.83 50.83Q223.02 52.9 223.02 53.62Q222.03 55.42 222.03 58.93Q222.03 65.41 224.37 68.29Q226.71 71.08 230.76 71.08Q233.37 71.08 238.86 69.64Q242.19 67.66 244.62 63.34Q246.15 61.81 247.77 61.81Q249.48 61.81 250.83 63.16Q252.18 64.51 252.18 66.22Q252.18 66.4 252.09 66.58Q252.09 66.67 252.09 66.85ZM302.13 79.81Q301.77 81.52 298.8 81.52Q296.37 81.52 295.29 80.44Q294.84 78.91 294.03 76.75Q293.22 74.5 292.14 71.62Q291.6 68.11 291.06 66.67Q290.61 65.23 289.89 64.51Q288.54 64.6 286.02 64.87Q283.5 65.05 280.71 65.41Q277.92 65.68 275.49 66.22Q273.06 66.67 271.98 67.21Q271.53 69.46 270.9 72.16Q270.27 74.86 269.37 77.92Q269.1 78.82 268.11 79.27Q267.12 79.63 265.68 79.63Q264.24 79.63 263.16 79.18Q262.17 78.64 262.17 77.65Q262.17 75.85 264.33 66.94Q264.24 66.58 264.24 65.86Q264.24 64.69 264.51 62.98Q264.87 61.18 265.23 59.56Q265.59 57.94 265.86 56.77Q266.22 55.6 266.22 55.51L269.1 47.5Q269.28 46.33 270 44.35Q270.81 42.37 271.71 40.3Q272.61 38.23 273.42 36.43Q274.23 34.54 274.5 33.55Q275.31 30.58 278.82 30.58Q281.7 30.58 282.51 32.74Q282.51 32.74 283.05 33.73Q283.59 34.72 284.49 36.25Q285.39 37.78 286.38 39.67Q287.46 41.47 288.36 43.18Q289.26 44.8 289.89 46.15Q290.52 47.41 290.61 47.86Q291.33 49.57 292.41 51.82Q293.49 53.98 295.02 56.68Q295.92 57.85 296.64 59.83Q297.45 61.72 298.08 63.7Q298.71 65.68 299.16 67.3Q299.61 68.92 299.97 69.46Q299.97 70.09 300.33 71.44Q300.78 72.7 301.14 74.14Q301.59 75.58 301.95 76.84Q302.31 78.1 302.31 78.64Q302.31 79.09 302.13 79.81ZM286.38 57.13Q285.66 54.97 285.03 53.44Q284.49 51.91 283.68 50.38Q282.96 48.85 281.97 46.96Q280.98 44.98 279.45 41.92Q277.38 45.7 276.48 50.65Q274.59 54.34 273.78 58.48Q276.57 57.67 278.28 57.67Q278.91 57.67 279.18 57.76Q280.71 57.4 282.87 57.4Q285.03 57.4 286.38 57.13ZM344.79 60.82Q344.7 63.52 344.61 65.14Q344.52 66.67 344.34 67.75Q344.25 68.74 343.89 69.55Q343.62 70.36 343.08 71.53Q341.19 75.85 337.23 78.19Q333.27 80.53 327.15 80.53Q324.99 80.53 323.73 80.53Q322.47 80.53 320.94 80.08Q319.5 79.63 317.25 78.55Q315 77.38 310.86 75.22Q307.62 73.51 307.62 70.9Q307.62 69.28 308.7 68.02Q309.78 66.67 311.49 66.49Q317.97 68.56 320.4 70.81Q323.64 72.25 328.23 72.25Q332.1 72.25 334.44 70Q334.8 69.01 335.16 67.21Q335.61 65.41 335.61 62.89Q335.61 60.91 334.44 59.65Q333.27 58.3 331.47 57.31Q329.67 56.32 327.42 55.51Q325.26 54.7 323.28 53.8Q321.75 53.17 320.22 52.36Q318.69 51.55 317.16 50.29Q313.29 43.72 313.29 41.02Q313.29 34.27 321.3 28.15Q328.77 25.36 331.47 25.36Q332.46 25.36 334.08 26.08Q335.7 26.8 337.23 27.88Q338.85 28.96 339.93 30.31Q341.1 31.57 341.1 32.83Q341.1 34.36 339.84 35.53Q338.67 36.61 336.78 36.61Q336.6 36.61 335.79 36.07Q334.98 35.53 333.81 34.9Q332.73 34.27 331.56 33.73Q330.48 33.19 329.76 33.19Q328.23 33.19 326.79 33.91Q325.44 34.63 324.36 35.71Q323.28 36.79 322.65 38.14Q322.02 39.4 322.02 40.48Q322.02 42.55 323.28 44.17Q324.54 45.79 326.34 46.78L332.01 48.76Q334.17 49.57 336.24 50.83Q338.31 52.09 340.02 53.71Q341.73 55.24 342.99 57.13Q344.25 58.93 344.79 60.82ZM396.54 79.81Q396.18 81.52 393.21 81.52Q390.78 81.52 389.7 80.44Q389.25 78.91 388.44 76.75Q387.63 74.5 386.55 71.62Q386.01 68.11 385.47 66.67Q385.02 65.23 384.3 64.51Q382.95 64.6 380.43 64.87Q377.91 65.05 375.12 65.41Q372.33 65.68 369.9 66.22Q367.47 66.67 366.39 67.21Q365.94 69.46 365.31 72.16Q364.68 74.86 363.78 77.92Q363.51 78.82 362.52 79.27Q361.53 79.63 360.09 79.63Q358.65 79.63 357.57 79.18Q356.58 78.64 356.58 77.65Q356.58 75.85 358.74 66.94Q358.65 66.58 358.65 65.86Q358.65 64.69 358.92 62.98Q359.28 61.18 359.64 59.56Q360 57.94 360.27 56.77Q360.63 55.6 360.63 55.51L363.51 47.5Q363.69 46.33 364.41 44.35Q365.22 42.37 366.12 40.3Q367.02 38.23 367.83 36.43Q368.64 34.54 368.91 33.55Q369.72 30.58 373.23 30.58Q376.11 30.58 376.92 32.74Q376.92 32.74 377.46 33.73Q378 34.72 378.9 36.25Q379.8 37.78 380.79 39.67Q381.87 41.47 382.77 43.18Q383.67 44.8 384.3 46.15Q384.93 47.41 385.02 47.86Q385.74 49.57 386.82 51.82Q387.9 53.98 389.43 56.68Q390.33 57.85 391.05 59.83Q391.86 61.72 392.49 63.7Q393.12 65.68 393.57 67.3Q394.02 68.92 394.38 69.46Q394.38 70.09 394.74 71.44Q395.19 72.7 395.55 74.14Q396 75.58 396.36 76.84Q396.72 78.1 396.72 78.64Q396.72 79.09 396.54 79.81ZM380.79 57.13Q380.07 54.97 379.44 53.44Q378.9 51.91 378.09 50.38Q377.37 48.85 376.38 46.96Q375.39 44.98 373.86 41.92Q371.79 45.7 370.89 50.65Q369 54.34 368.19 58.48Q370.98 57.67 372.69 57.67Q373.32 57.67 373.59 57.76Q375.12 57.4 377.28 57.4Q379.44 57.4 380.79 57.13Z" />
</svg>