<?xml version="1.0"?>
<svg xmlns="http://www.w3.org/2000/svg" xmlns:xlink="http://www.w3.org/1999/xlink" xmlns:svgjs="http://svgjs.com/svgjs" version="1.1" width="512" height="512" x="0" y="0" viewBox="0 0 511.335 511.335" style="enable-background:new 0 0 512 512" xml:space="preserve" class=""><g><path xmlns="http://www.w3.org/2000/svg" d="m264.465 17.598c-39.501 0-78.442 9.517-113.341 27.604l-40.806-40.808c-3.609-3.611-8.809-5.137-13.797-4.051s-9.082 4.635-10.865 9.419l-20.606 55.289-55.288 20.605c-4.784 1.783-8.333 5.877-9.419 10.865-1.085 4.988.44 10.187 4.051 13.797l40.807 40.808c-18.087 34.898-27.604 73.839-27.604 113.34 0 136.124 110.744 246.869 246.868 246.869s246.87-110.745 246.87-246.869-110.746-246.868-246.87-246.868zm0 328.116c44.801 0 81.249-36.447 81.249-81.248s-36.448-81.248-81.249-81.248c-16.992 0-32.775 5.252-45.83 14.205l-37.717-37.717c22.931-18.324 51.98-29.299 83.547-29.299 73.92 0 134.059 60.139 134.059 134.059s-60.139 134.059-134.059 134.059-134.058-60.139-134.058-134.059c0-31.567 10.974-60.616 29.298-83.547l37.717 37.717c-8.953 13.055-14.205 28.838-14.205 45.83 0 44.8 36.448 81.248 81.248 81.248zm10.607-91.855-34.64-34.64c7.173-3.825 15.353-6.002 24.033-6.002 28.259 0 51.249 22.99 51.249 51.248s-22.99 51.248-51.249 51.248c-28.258 0-51.248-22.99-51.248-51.248 0-8.681 2.177-16.859 6.002-24.033l34.64 34.64c2.929 2.929 6.768 4.393 10.606 4.393 3.839 0 7.678-1.465 10.606-4.393 5.859-5.857 5.859-15.355.001-21.213zm-169.458-211.743 50.476 50.477-6.489 35.795-55.468-55.467zm-63.498 63.498 30.805-11.48 55.468 55.467-35.796 6.49zm222.349 375.721c-119.581 0-216.868-97.287-216.868-216.869 0-31.479 6.882-62.547 20.021-90.924l9.315 9.315c2.838 2.839 6.664 4.394 10.606 4.394.889 0 1.784-.079 2.676-.24l33.055-5.992c-14.514 24.465-22.862 52.997-22.862 83.447 0 90.462 73.596 164.059 164.058 164.059s164.059-73.597 164.059-164.059-73.597-164.059-164.059-164.059c-30.45 0-58.982 8.349-83.447 22.863l5.992-33.055c.877-4.84-.675-9.804-4.153-13.282l-9.315-9.315c28.376-13.139 59.444-20.021 90.924-20.021 119.582 0 216.869 97.287 216.869 216.868-.001 119.583-97.289 216.87-216.871 216.87z" fill="#0b305e" data-original="#000000" style="" class=""/></g></svg>
